<?xml version="1.0" encoding="UTF-8" standalone="no"?><!DOCTYPE svg PUBLIC "-//W3C//DTD SVG 1.1//EN" "http://www.w3.org/Graphics/SVG/1.1/DTD/svg11.dtd"><svg width="100%" height="100%" viewBox="0 0 172 90" version="1.1" xmlns="http://www.w3.org/2000/svg" xmlns:xlink="http://www.w3.org/1999/xlink" xml:space="preserve" xmlns:serif="http://www.serif.com/" style="fill-rule:evenodd;clip-rule:evenodd;stroke-linecap:round;stroke-linejoin:round;stroke-miterlimit:1.5;"><path d="M4.064,18.507c-0,-8.628 12.278,-15.633 27.402,-15.633c15.124,-0 27.402,7.005 27.402,15.633l0,51.424c0,8.628 -12.278,15.633 -27.402,15.633c-15.124,0 -27.402,-7.005 -27.402,-15.633l-0,-51.424Z" style="fill:#fff;stroke:#000;stroke-width:2.52px;"/><path d="M58.868,18.507c0,-8.628 12.279,-15.633 27.403,-15.633c15.123,-0 27.402,7.005 27.402,15.633l-0,51.424c-0,8.628 -12.279,15.633 -27.402,15.633c-15.124,0 -27.403,-7.005 -27.403,-15.633l0,-51.424Z" style="fill:#fff;stroke:#000;stroke-width:2.52px;"/><path d="M113.673,18.507c-0,-8.628 12.279,-15.633 27.402,-15.633c15.124,-0 27.403,7.005 27.403,15.633l-0,51.424c-0,8.628 -12.279,15.633 -27.403,15.633c-15.123,0 -27.402,-7.005 -27.402,-15.633l-0,-51.424Z" style="fill:#fff;stroke:#000;stroke-width:2.52px;"/><path d="M4.064,56.854l164.414,-0" style="fill:none;stroke:#000;stroke-width:2.52px;"/><g transform="matrix(18,0,0,18,43.3879,26.2651)"></g><text x="18.383px" y="26.265px" style="font-family:'ArialMT', 'Arial', sans-serif;font-size:18px;">pm</text><g transform="matrix(18,0,0,18,155.709,25.9466)"></g><text x="126.688px" y="25.947px" style="font-family:'ArialMT', 'Arial', sans-serif;font-size:18px;">co2</text><g transform="matrix(18,0,0,18,100.254,25.9466)"></g><text x="71.233px" y="25.947px" style="font-family:'ArialMT', 'Arial', sans-serif;font-size:18px;">nox</text></svg>
